<?xml version="1.0" encoding="utf-8"?>
<!-- Generator: Adobe Illustrator 24.3.0, SVG Export Plug-In . SVG Version: 6.00 Build 0)  -->
<svg version="1.1" id="Layer_1" xmlns="http://www.w3.org/2000/svg" xmlns:xlink="http://www.w3.org/1999/xlink" x="0px" y="0px"
	 viewBox="0 0 32 32" style="enable-background:new 0 0 32 32;" xml:space="preserve">
<style type="text/css">
	.st0{fill:none;}
	.st1{fill:#CDAE70;}
</style>
<g>
	<path class="st0" d="M15.89,27.89c3.44,0,6.7-1.48,8.97-4.08c-0.19-0.25-0.29-0.54-0.29-0.86c0-0.78,0.63-1.42,1.42-1.42
		c0.14,0,0.28,0.02,0.41,0.06c0.04-0.08,0.09-0.16,0.13-0.24c0.57-1.13,0.96-2.34,1.15-3.59c-0.71-0.15-1.27-0.72-1.41-1.44h-3.32
		c-0.16,0.57-0.68,0.98-1.28,0.98c-0.25,0-0.49-0.07-0.7-0.19c-0.08-0.05-0.16-0.11-0.23-0.18c-0.26-0.25-0.4-0.59-0.4-0.95
		c0-0.73,0.6-1.33,1.33-1.33c0.2,0,0.39,0.04,0.57,0.13c0.08,0.03,0.16,0.08,0.24,0.15c0.23,0.18,0.39,0.43,0.47,0.7h3.32
		c0.14-0.71,0.7-1.28,1.41-1.43c-0.14-0.95-0.4-1.87-0.76-2.76c-0.14-0.35-0.31-0.69-0.48-1.03c-0.09,0.02-0.19,0.03-0.29,0.03
		c-0.77,0-1.4-0.63-1.4-1.4c0-0.28,0.08-0.54,0.23-0.77c-2.27-2.68-5.57-4.21-9.07-4.21c-6.57,0-11.91,5.34-11.91,11.91
		S9.32,27.89,15.89,27.89z M10.49,16.29h2.44c-0.03-0.18-0.09-0.4-0.16-0.66h-2.28v-1.86h1.79c-0.13-0.61-0.19-1.32-0.19-2.17
		c0-1.35,0.48-2.45,1.43-3.26c0.94-0.8,2.17-1.21,3.67-1.21c1.33,0,2.45,0.34,3.32,1.01c0.42,0.35,0.75,0.82,1.01,1.46
		c0.25,0.6,0.42,1.16,0.52,1.66l0.04,0.21l-1.23,0.18c-0.64,0.07-1.05-0.07-1.23-0.44c-0.05-0.05-0.14-0.2-0.4-0.8
		c-0.45-0.89-1.15-1.33-2.14-1.33c-1,0-1.72,0.27-2.14,0.8c-0.44,0.54-0.62,1.21-0.56,2.04c0,0.31,0.03,0.63,0.1,0.99
		c0.05,0.31,0.12,0.59,0.19,0.85h4.11c0.27,0,0.73,0.1,0.73,0.78v1.07h-4.4l0.05,0.23c0.03,0.15,0.07,0.29,0.1,0.43h3.52
		c0.46,0,0.73,0.27,0.73,0.73v1.13h-4.08c-0.06,0.65-0.26,1.36-0.61,2.13c-0.28,0.62-0.57,1.17-0.84,1.63
		c0.61-0.11,1.24-0.11,1.85-0.02c0.76,0.11,1.52,0.27,2.27,0.46c0.64,0.19,1.2,0.26,1.67,0.21c0.46-0.04,1.03-0.21,1.68-0.49
		l0.18-0.08l1.05,2.21l-0.2,0.08c-0.83,0.33-1.72,0.5-2.64,0.5c-0.88,0-1.84-0.16-2.84-0.47c-0.96-0.3-1.78-0.45-2.43-0.45
		c-0.68,0-1.18,0.07-1.5,0.2c-0.34,0.15-0.7,0.33-1.07,0.55l-0.2,0.11l-0.97-2.25l0.12-0.1c0.55-0.43,1.06-1.09,1.52-1.97
		c0.41-0.8,0.64-1.56,0.67-2.27h-2.66V16.29z M7.36,14.65c0.2,0,0.4,0.04,0.57,0.13c0.08,0.04,0.16,0.08,0.24,0.15
		c0.33,0.26,0.51,0.64,0.51,1.05c0,0.73-0.6,1.33-1.33,1.33c-0.25,0-0.49-0.07-0.7-0.2c-0.08-0.05-0.16-0.11-0.23-0.18
		c-0.26-0.25-0.4-0.59-0.4-0.95C6.03,15.25,6.63,14.65,7.36,14.65z"/>
	<path class="st0" d="M13.12,15.37c0.14,0.48,0.22,0.84,0.25,1.1l0.03,0.23h-2.5v1.05h2.67v0.2c0,0.83-0.24,1.73-0.73,2.66
		c-0.45,0.86-0.96,1.53-1.51,2L12,24.15c0.32-0.18,0.62-0.33,0.92-0.46c0.37-0.16,0.92-0.23,1.66-0.23c0.7,0,1.56,0.16,2.55,0.47
		c1.87,0.58,3.51,0.6,5.01,0.06l-0.69-1.46c-0.62,0.25-1.16,0.4-1.62,0.45c-0.52,0.05-1.13-0.02-1.82-0.22
		c-0.73-0.19-1.48-0.34-2.22-0.45c-0.72-0.11-1.46-0.07-2.17,0.12l-0.53,0.14l0.31-0.45c0.35-0.51,0.71-1.17,1.08-1.98
		c0.36-0.8,0.55-1.53,0.58-2.18l0.01-0.19h4.06v-0.72c0-0.24-0.08-0.32-0.32-0.32h-3.84l-0.04-0.16c-0.04-0.18-0.09-0.39-0.14-0.63
		l-0.16-0.69h4.5v-0.67c0-0.32-0.12-0.38-0.32-0.38h-4.41l-0.04-0.14c-0.1-0.31-0.18-0.66-0.25-1.04c-0.07-0.39-0.1-0.73-0.1-1.05
		c-0.07-0.91,0.15-1.69,0.65-2.31c0.51-0.63,1.34-0.95,2.46-0.95c1.14,0,1.99,0.53,2.51,1.56c0.27,0.61,0.34,0.71,0.35,0.73
		l0.03,0.04c0.1,0.21,0.36,0.28,0.82,0.23l0.79-0.12c-0.1-0.42-0.25-0.88-0.45-1.38c-0.23-0.57-0.52-1-0.89-1.3
		c-0.79-0.61-1.83-0.93-3.07-0.93c-1.39,0-2.54,0.37-3.4,1.11c-0.85,0.73-1.29,1.72-1.29,2.95c0,0.93,0.08,1.69,0.24,2.33l0.06,0.25
		h-1.9v1.05h2.18L13.12,15.37z"/>
	<path class="st0" d="M25.98,23.67c0.4,0,0.72-0.32,0.72-0.72c0-0.22-0.1-0.43-0.28-0.57c-0.04-0.03-0.08-0.06-0.12-0.08
		c-0.1-0.05-0.2-0.07-0.32-0.07c-0.4,0-0.72,0.32-0.72,0.72c0,0.2,0.08,0.38,0.22,0.52c0.04,0.04,0.08,0.07,0.12,0.09
		c0.01,0,0.01,0.01,0.02,0.01h0.04l-0.01,0.02C25.75,23.64,25.86,23.67,25.98,23.67z"/>
	<path class="st0" d="M22.03,15.48c-0.04-0.03-0.08-0.05-0.11-0.07c-0.09-0.05-0.19-0.07-0.28-0.07c-0.35,0-0.63,0.28-0.63,0.63
		c0,0.17,0.07,0.34,0.19,0.46c0.04,0.03,0.07,0.06,0.1,0.08c0.11,0.07,0.22,0.1,0.34,0.1c0.35,0,0.63-0.28,0.63-0.63
		C22.28,15.79,22.19,15.6,22.03,15.48z"/>
	<path class="st0" d="M6.92,16.44c0.03,0.03,0.07,0.06,0.1,0.08c0.1,0.06,0.22,0.1,0.34,0.1c0.35,0,0.63-0.28,0.63-0.63
		c0-0.2-0.09-0.38-0.24-0.5c-0.04-0.03-0.07-0.05-0.11-0.07c-0.09-0.05-0.18-0.07-0.28-0.07c-0.35,0-0.63,0.28-0.63,0.63
		C6.73,16.16,6.8,16.32,6.92,16.44z"/>
	<path class="st0" d="M16,0.97C7.71,0.97,0.97,7.71,0.97,16c0,8.29,6.74,15.03,15.03,15.03S31.03,24.29,31.03,16
		C31.03,7.71,24.29,0.97,16,0.97z M27.53,9.05c0,0.41-0.18,0.8-0.49,1.06c0.68,1.28,1.12,2.65,1.32,4.08
		c0.87,0.15,1.5,0.89,1.5,1.79c0,0.88-0.65,1.64-1.5,1.8c-0.21,1.47-0.67,2.87-1.38,4.18c0.26,0.26,0.41,0.61,0.41,1
		c0,0.78-0.63,1.42-1.42,1.42c-0.2,0-0.4-0.04-0.57-0.12c-2.4,2.76-5.86,4.34-9.51,4.34c-6.95,0-12.61-5.66-12.61-12.61
		S8.94,3.38,15.89,3.38c3.7,0,7.18,1.61,9.59,4.43c0.2-0.11,0.42-0.16,0.65-0.16C26.9,7.65,27.53,8.28,27.53,9.05z"/>
	<path class="st0" d="M28.14,17.1c0.58-0.05,1.03-0.54,1.03-1.12c0-0.58-0.45-1.07-1.02-1.12c-0.05,0-0.09-0.01-0.13-0.01
		c0,0-0.01,0-0.01,0l-0.03,0c-0.56,0.03-1.01,0.48-1.06,1.03l0,0.21c0.04,0.53,0.49,0.97,1.04,1.01c0.06,0,0.11,0.01,0.17,0
		L28.14,17.1z"/>
	<path class="st0" d="M26.13,8.34c-0.39,0-0.7,0.32-0.7,0.7c0,0.39,0.32,0.7,0.7,0.7c0.39,0,0.7-0.32,0.7-0.7
		C26.83,8.66,26.52,8.34,26.13,8.34z"/>
	<path class="st1" d="M12.48,20.42c-0.45,0.87-0.96,1.53-1.52,1.97l-0.12,0.1l0.97,2.25l0.2-0.11c0.37-0.22,0.73-0.4,1.07-0.55
		c0.32-0.13,0.82-0.2,1.5-0.2c0.66,0,1.47,0.15,2.43,0.45c1,0.31,1.96,0.47,2.84,0.47c0.93,0,1.81-0.17,2.64-0.5l0.2-0.08
		l-1.05-2.21l-0.18,0.08c-0.65,0.28-1.22,0.45-1.68,0.49c-0.47,0.05-1.03-0.02-1.67-0.21c-0.75-0.2-1.51-0.35-2.27-0.46
		c-0.61-0.09-1.24-0.09-1.85,0.02c0.28-0.46,0.56-1,0.84-1.63c0.34-0.77,0.55-1.48,0.61-2.13h4.08v-1.13c0-0.46-0.27-0.73-0.73-0.73
		h-3.52c-0.03-0.13-0.06-0.27-0.1-0.43l-0.05-0.23h4.4v-1.07c0-0.68-0.46-0.78-0.73-0.78h-4.11c-0.07-0.26-0.14-0.55-0.19-0.85
		c-0.07-0.36-0.1-0.69-0.1-0.99c-0.06-0.83,0.12-1.5,0.56-2.04c0.43-0.53,1.15-0.8,2.14-0.8c0.99,0,1.69,0.44,2.14,1.33
		c0.26,0.6,0.35,0.74,0.4,0.8c0.18,0.36,0.59,0.51,1.23,0.44l1.23-0.18l-0.04-0.21c-0.1-0.5-0.27-1.06-0.52-1.66
		c-0.26-0.64-0.59-1.12-1.01-1.46c-0.87-0.67-1.99-1.01-3.32-1.01c-1.49,0-2.72,0.41-3.67,1.21c-0.95,0.81-1.43,1.91-1.43,3.26
		c0,0.85,0.06,1.56,0.19,2.17h-1.79v1.86h2.28c0.07,0.26,0.12,0.48,0.16,0.66h-2.44v1.86h2.66C13.11,18.86,12.89,19.62,12.48,20.42z
		 M10.9,14.18h1.9l-0.06-0.25c-0.16-0.63-0.24-1.39-0.24-2.33c0-1.23,0.43-2.22,1.29-2.95c0.87-0.74,2.01-1.11,3.4-1.11
		c1.24,0,2.27,0.31,3.07,0.93c0.36,0.3,0.65,0.72,0.89,1.3c0.2,0.49,0.35,0.96,0.45,1.38l-0.79,0.12c-0.45,0.05-0.72-0.02-0.82-0.23
		l-0.03-0.04c-0.02-0.02-0.09-0.12-0.35-0.73c-0.52-1.04-1.36-1.56-2.51-1.56c-1.12,0-1.95,0.32-2.46,0.95
		c-0.5,0.62-0.72,1.4-0.65,2.31c0,0.32,0.03,0.66,0.1,1.05c0.07,0.38,0.15,0.73,0.25,1.04l0.04,0.14h4.41
		c0.21,0,0.32,0.06,0.32,0.38v0.67h-4.5l0.16,0.69c0.05,0.23,0.1,0.44,0.14,0.63l0.04,0.16h3.84c0.24,0,0.32,0.08,0.32,0.32v0.72
		h-4.06l-0.01,0.19c-0.03,0.65-0.23,1.38-0.58,2.18c-0.37,0.81-0.73,1.48-1.08,1.98l-0.31,0.45l0.53-0.14
		c0.72-0.19,1.45-0.23,2.17-0.12c0.74,0.11,1.49,0.26,2.22,0.45c0.69,0.2,1.3,0.27,1.82,0.22c0.46-0.04,1.01-0.2,1.62-0.45
		l0.69,1.46c-1.5,0.54-3.14,0.52-5.01-0.06c-1-0.31-1.86-0.47-2.55-0.47c-0.73,0-1.29,0.08-1.66,0.23c-0.29,0.13-0.6,0.28-0.92,0.46
		l-0.67-1.54c0.55-0.47,1.06-1.14,1.51-2c0.48-0.93,0.73-1.83,0.73-2.66v-0.2H10.9V16.7h2.5l-0.03-0.23
		c-0.03-0.25-0.11-0.61-0.25-1.1l-0.04-0.15H10.9V14.18z"/>
	<path class="st1" d="M16,0C7.18,0,0,7.18,0,16s7.18,16,16,16s16-7.18,16-16S24.82,0,16,0z M31.03,16c0,8.29-6.74,15.03-15.03,15.03
		S0.97,24.29,0.97,16C0.97,7.71,7.71,0.97,16,0.97S31.03,7.71,31.03,16z"/>
	<path class="st1" d="M25.48,7.81c-2.41-2.82-5.89-4.43-9.59-4.43c-6.95,0-12.61,5.66-12.61,12.61s5.66,12.61,12.61,12.61
		c3.65,0,7.11-1.58,9.51-4.34c0.18,0.08,0.37,0.12,0.57,0.12c0.78,0,1.42-0.64,1.42-1.42c0-0.38-0.15-0.74-0.41-1
		c0.71-1.31,1.17-2.71,1.38-4.18c0.85-0.15,1.5-0.91,1.5-1.8c0-0.9-0.64-1.65-1.5-1.79c-0.2-1.43-0.65-2.8-1.32-4.08
		c0.31-0.26,0.49-0.65,0.49-1.06c0-0.77-0.63-1.4-1.4-1.4C25.9,7.65,25.67,7.7,25.48,7.81z M25.62,23.57
		c-0.01,0-0.01-0.01-0.02-0.01c-0.04-0.02-0.08-0.05-0.12-0.09c-0.14-0.14-0.22-0.32-0.22-0.52c0-0.4,0.32-0.72,0.72-0.72
		c0.11,0,0.22,0.02,0.32,0.07c0.04,0.02,0.09,0.05,0.12,0.08c0.18,0.14,0.28,0.35,0.28,0.57c0,0.4-0.32,0.72-0.72,0.72
		c-0.12,0-0.23-0.03-0.33-0.08l0.01-0.02H25.62z M15.89,4.07c3.51,0,6.8,1.53,9.07,4.21c-0.15,0.23-0.23,0.49-0.23,0.77
		c0,0.77,0.63,1.4,1.4,1.4c0.1,0,0.19-0.01,0.29-0.03c0.18,0.33,0.34,0.68,0.48,1.03c0.37,0.88,0.62,1.81,0.76,2.76
		c-0.71,0.15-1.27,0.72-1.41,1.43h-3.32c-0.07-0.28-0.24-0.52-0.47-0.7c-0.08-0.06-0.17-0.11-0.24-0.15
		c-0.18-0.09-0.37-0.13-0.57-0.13c-0.73,0-1.33,0.6-1.33,1.33c0,0.36,0.14,0.7,0.4,0.95c0.07,0.07,0.15,0.14,0.23,0.18
		c0.21,0.13,0.45,0.19,0.7,0.19c0.61,0,1.13-0.41,1.28-0.98h3.32c0.14,0.71,0.7,1.28,1.41,1.44c-0.19,1.25-0.57,2.46-1.15,3.59
		c-0.04,0.08-0.08,0.16-0.13,0.24c-0.13-0.04-0.27-0.06-0.41-0.06c-0.78,0-1.42,0.63-1.42,1.42c0,0.32,0.1,0.61,0.29,0.86
		c-2.27,2.6-5.52,4.08-8.97,4.08c-6.57,0-11.91-5.34-11.91-11.91S9.32,4.07,15.89,4.07z M22.28,15.98c0,0.35-0.28,0.63-0.63,0.63
		c-0.12,0-0.23-0.03-0.34-0.1c-0.03-0.02-0.06-0.04-0.1-0.08c-0.12-0.12-0.19-0.28-0.19-0.46c0-0.35,0.28-0.63,0.63-0.63
		c0.1,0,0.19,0.02,0.28,0.07c0.03,0.01,0.07,0.04,0.11,0.07C22.19,15.6,22.28,15.79,22.28,15.98z M27.96,17.11
		c-0.55-0.04-1-0.48-1.04-1.01l0-0.21c0.04-0.55,0.5-1,1.06-1.03l0.03,0c0,0,0.01,0,0.01,0c0.04,0,0.08,0,0.13,0.01
		c0.57,0.05,1.02,0.54,1.02,1.12c0,0.58-0.45,1.07-1.03,1.12l-0.01,0C28.08,17.11,28.02,17.11,27.96,17.11z M26.13,9.75
		c-0.39,0-0.7-0.32-0.7-0.7c0-0.39,0.32-0.7,0.7-0.7c0.39,0,0.7,0.32,0.7,0.7C26.83,9.44,26.52,9.75,26.13,9.75z"/>
	<path class="st1" d="M6.43,16.94c0.07,0.07,0.15,0.14,0.23,0.18c0.21,0.13,0.45,0.2,0.7,0.2c0.73,0,1.33-0.6,1.33-1.33
		c0-0.41-0.19-0.79-0.51-1.05c-0.08-0.06-0.16-0.11-0.24-0.15c-0.18-0.09-0.37-0.13-0.57-0.13c-0.73,0-1.33,0.6-1.33,1.33
		C6.03,16.35,6.18,16.69,6.43,16.94z M7.36,15.35c0.1,0,0.19,0.02,0.28,0.07c0.04,0.02,0.07,0.04,0.11,0.07
		C7.91,15.61,8,15.79,8,15.98c0,0.35-0.28,0.63-0.63,0.63c-0.12,0-0.23-0.03-0.34-0.1c-0.04-0.02-0.07-0.05-0.1-0.08
		c-0.12-0.12-0.19-0.28-0.19-0.45C6.73,15.63,7.01,15.35,7.36,15.35z"/>
</g>
</svg>
