<?xml version="1.0" encoding="utf-8"?>
<!-- Generator: Adobe Illustrator 24.3.0, SVG Export Plug-In . SVG Version: 6.00 Build 0)  -->
<svg version="1.1" id="Layer_1" xmlns="http://www.w3.org/2000/svg" xmlns:xlink="http://www.w3.org/1999/xlink" x="0px" y="0px"
	 viewBox="0 0 32 32" style="enable-background:new 0 0 32 32;" xml:space="preserve">
<style type="text/css">
	.st0{fill:#CDAE70;}
</style>
<g>
	<g>
		<path class="st0" d="M24.35,27.45l-0.29,0.11c-1.2,0.48-2.5,0.73-3.83,0.73c-1.29,0-2.67-0.23-4.13-0.68
			c-1.39-0.43-2.58-0.66-3.53-0.66c-0.98,0-1.71,0.1-2.17,0.3c-0.49,0.21-1.01,0.48-1.55,0.79l-0.29,0.17l-1.41-3.26l0.18-0.14
			c0.81-0.62,1.54-1.58,2.21-2.85c0.59-1.16,0.92-2.26,0.98-3.3H6.65v-2.7h3.54c-0.05-0.26-0.13-0.58-0.23-0.95h-3.3v-2.7h2.6
			c-0.18-0.89-0.27-1.93-0.27-3.15c0-1.96,0.7-3.55,2.06-4.72c1.37-1.17,3.16-1.76,5.32-1.76c1.94,0,3.55,0.5,4.82,1.47
			c0.61,0.5,1.09,1.19,1.46,2.12C23,7.15,23.26,7.97,23.4,8.69l0.06,0.3l-1.78,0.26c-0.92,0.11-1.52-0.1-1.78-0.63
			c-0.06-0.08-0.2-0.29-0.58-1.16c-0.65-1.3-1.66-1.93-3.1-1.93c-1.45,0-2.5,0.39-3.11,1.16c-0.64,0.78-0.9,1.75-0.82,2.95
			c0,0.45,0.05,0.91,0.14,1.44c0.08,0.45,0.17,0.86,0.28,1.24h5.96c0.4,0,1.06,0.14,1.06,1.14v1.56h-6.39l0.08,0.34
			c0.05,0.22,0.1,0.43,0.14,0.62h5.11c0.67,0,1.06,0.39,1.06,1.06v1.63h-5.92c-0.09,0.94-0.38,1.98-0.88,3.09
			c-0.41,0.91-0.82,1.7-1.22,2.36c0.9-0.15,1.79-0.16,2.69-0.02c1.1,0.16,2.2,0.38,3.29,0.67c0.94,0.26,1.75,0.37,2.42,0.3
			c0.67-0.06,1.5-0.3,2.44-0.71l0.26-0.11L24.35,27.45z"/>
	</g>
	<g>
		<path class="st0" d="M16,0C7.18,0,0,7.18,0,16s7.18,16,16,16s16-7.18,16-16S24.82,0,16,0z M31.03,16
			c0,8.29-6.74,15.03-15.03,15.03S0.97,24.29,0.97,16C0.97,7.71,7.71,0.97,16,0.97S31.03,7.71,31.03,16z"/>
	</g>
</g>
</svg>
